:FULLY-SPECIFIED
:FORCE-ALL-JOINTS-BE-3DOF
:DEGREES
1835
root 4.73904 13.9623 27.8068 -25.2339 56.8832 -19.3204
lfemur -43.503 24.3175 2.68928
ltibia 61.7449 -0 0
lfoot 1.84823 -4.29443 -0.312654
ltoes -18.6207 0 0
rfemur -0.43159 -0.962754 18.3282
rtibia 59.8855 -0 0
rfoot -29.8693 -30.6192 0.00263939
rtoes -23.7252 0 0
lowerback 19.1431 5.29307 1.56932
upperback 1.69638 7.94172 4.91483
thorax -9.38406 3.89599 2.28243
lowerneck -4.56834 6.30521 -0.352584
upperneck 7.32241 8.45379 0.928069
head 3.1575 4.22737 0.686668
lclavicle -3.82821e-15 -9.2906e-15 1.16003e-30
lhumerus 53.19 4.10453 84.3165
lradius 16.7629 -0 0
lwrist -55.3684 0 0
lhand -33.3651 54.1287 0.0491455
lfingers 7.12502 -0 0
lthumb -6.99275 61.211 -1.20759
rclavicle -3.82821e-15 -9.2906e-15 1.16003e-30
rhumerus -69.5799 14.1714 -74.7415
rradius 124.357 -0 0
rwrist 18.8905 180 180
rhand -41.527 78.1992 -4.38826
rfingers 7.12502 -0 0
rthumb -14.395 48.9845 -4.17794
1836
root 4.71036 13.964 27.8137 -25.403 57.2269 -19.5629
lfemur -43.605 24.3192 2.55785
ltibia 61.9146 -0 0
lfoot 1.75606 -4.17294 -0.328257
ltoes -18.6586 0 0
rfemur -0.558275 -1.04579 18.3404
rtibia 59.9272 -0 0
rfoot -29.8818 -30.6286 0.00278173
rtoes -23.7369 0 0
lowerback 19.1272 5.26119 1.59131
upperback 1.68568 7.90518 4.91454
thorax -9.38395 3.8778 2.27967
lowerneck -4.55679 6.33903 -0.322303
upperneck 7.29316 8.50231 0.869774
head 3.15304 4.25001 0.662927
lclavicle -4.06955e-15 -9.1733e-15 1.20342e-30
lhumerus 52.9393 3.88187 84.0103
lradius 17.2647 -0 0
lwrist -54.9467 0 0
lhand -33.317 54.1497 0.0520647
lfingers 7.12502 -0 0
lthumb -6.96253 60.1867 -1.26496
rclavicle -4.06955e-15 -9.1733e-15 1.20342e-30
rhumerus -69.5228 14.2772 -74.844
rradius 124.266 -0 0
rwrist 18.1812 180 180
rhand -41.362 77.5936 -4.62204
rfingers 7.12502 -0 0
rthumb -14.234 48.3839 -4.40022
1837
root 4.68124 13.9657 27.8207 -25.5789 57.5754 -19.8134
lfemur -43.7089 24.3207 2.42434
ltibia 62.0867 -0 0
lfoot 1.66269 -4.04964 -0.343889
ltoes -18.6966 0 0
rfemur -0.687073 -1.12999 18.3532
rtibia 59.9696 -0 0
rfoot -29.8944 -30.638 0.00292479
rtoes -23.7489 0 0
lowerback 19.111 5.22887 1.61369
upperback 1.67481 7.86813 4.91426
thorax -9.38378 3.85936 2.27684
lowerneck -4.545 6.37333 -0.291552
upperneck 7.26333 8.55151 0.810609
head 3.14847 4.27297 0.638834
lclavicle -4.30746e-15 -9.05321e-15 1.24591e-30
lhumerus 52.6862 3.65418 83.7007
lradius 17.7747 -0 0
lwrist -54.5185 0 0
lhand -33.268 54.172 0.0550208
lfingers 7.12502 -0 0
lthumb -6.931 59.1627 -1.32229
rclavicle -4.30746e-15 -9.05321e-15 1.24591e-30
rhumerus -69.4649 14.3847 -74.948
rradius 124.173 -0 0
rwrist 17.4614 180 180
rhand -41.1918 76.9781 -4.85757
rfingers 7.12502 -0 0
rthumb -14.0681 47.7733 -4.62414
1838
root 4.65168 13.9675 27.8277 -25.7621 57.9286 -20.0722
lfemur -43.8144 24.3219 2.2888
ltibia 62.2614 -0 0
lfoot 1.56814 -3.92454 -0.359538
ltoes -18.7348 0 0
rfemur -0.817954 -1.21534 18.3665
rtibia 60.0126 -0 0
rfoot -29.9073 -30.6476 0.00306844
rtoes -23.761 0 0
lowerback 19.0944 5.1961 1.63645
upperback 1.66376 7.83058 4.91398
thorax -9.38356 3.84066 2.27395
lowerneck -4.533 6.4081 -0.260336
upperneck 7.23295 8.60136 0.750587
head 3.1438 4.29626 0.614393
lclavicle -4.54195e-15 -8.93036e-15 1.2875e-30
lhumerus 52.4309 3.42148 83.3877
lradius 18.2927 -0 0
lwrist -54.0841 0 0
lhand -33.2181 54.1954 0.0580108
lfingers 7.12502 -0 0
lthumb -6.89817 58.1391 -1.37956
rclavicle -4.54195e-15 -8.93036e-15 1.2875e-30
rhumerus -69.4063 14.4939 -75.0534
rradius 124.079 -0 0
rwrist 16.7311 180 180
rhand -41.0161 76.3526 -5.09467
rfingers 7.12502 -0 0
rthumb -13.8969 47.153 -4.84951
1839
root 4.62168 13.9692 27.8349 -25.9527 58.2863 -20.3395
lfemur -43.9215 24.3228 2.15126
ltibia 62.4384 -0 0
lfoot 1.47243 -3.79768 -0.375193
ltoes -18.7732 0 0
rfemur -0.950887 -1.30182 18.3803
rtibia 60.0563 -0 0
rfoot -29.9204 -30.6572 0.00321251
rtoes -23.7734 0 0
lowerback 19.0775 5.1629 1.6596
upperback 1.65253 7.79253 4.91371
thorax -9.3833 3.82173 2.271
lowerneck -4.52077 6.44334 -0.228662
upperneck 7.20201 8.65185 0.689719
head 3.13902 4.31986 0.589611
lclavicle -4.77307e-15 -8.80476e-15 1.32817e-30
lhumerus 52.1735 3.18379 83.0714
lradius 18.8186 -0 0
lwrist -53.6436 0 0
lhand -33.1673 54.22 0.0610315
lfingers 7.12502 -0 0
lthumb -6.86405 57.1159 -1.43674
rclavicle -4.77307e-15 -8.80476e-15 1.32817e-30
rhumerus -69.347 14.6048 -75.1603
rradius 123.984 -0 0
rwrist 15.9906 180 180
rhand -40.8351 75.7173 -5.33317
rfingers 7.12502 -0 0
rthumb -13.7207 46.523 -5.07619
1840
root 4.59125 13.9711 27.8422 -26.1512 58.6485 -20.6157
lfemur -44.0304 24.3234 2.01176
ltibia 62.6178 -0 0
lfoot 1.37558 -3.66909 -0.390842
ltoes -18.8117 0 0
rfemur -1.08584 -1.38941 18.3946
rtibia 60.1006 -0 0
rfoot -29.9338 -30.6669 0.00335687
rtoes -23.786 0 0
lowerback 19.0602 5.12928 1.68312
upperback 1.64113 7.75401 4.91344
thorax -9.38299 3.80254 2.26798
lowerneck -4.50833 6.47904 -0.196538
upperneck 7.17053 8.70298 0.628017
head 3.13415 4.34377 0.564493
lclavicle -5.00081e-15 -8.67646e-15 1.36793e-30
lhumerus 51.9141 2.94114 82.752
lradius 19.3521 -0 0
lwrist -53.197 0 0
lhand -33.1156 54.2458 0.06408
lfingers 7.12502 -0 0
lthumb -6.82862 56.093 -1.49378
rclavicle -5.00081e-15 -8.67646e-15 1.36793e-30
rhumerus -69.287 14.7174 -75.2687
rradius 123.887 -0 0
rwrist 15.24 180 180
rhand -40.6486 75.0723 -5.57289
rfingers 7.12502 -0 0
rthumb -13.5392 45.8834 -5.30399
